HIERARCHY
ROOT Hips
{
  OFFSET 0 92.2951 0
  CHANNELS 6 Xposition Yposition Zposition Zrotation Xrotation Yrotation
  JOINT LeftUpLeg
  {
    OFFSET 8.98111 0 0
    CHANNELS 6 Xposition Yposition Zposition Zrotation Xrotation Yrotation
    JOINT LeftLeg
    {
      OFFSET -0.87507 -44.0267 -0.646895
      CHANNELS 6 Xposition Yposition Zposition Zrotation Xrotation Yrotation
      JOINT LeftFoot
      {
        OFFSET -2.03811 -42.8489 -5.55045
        CHANNELS 6 Xposition Yposition Zposition Zrotation Xrotation Yrotation
        JOINT LeftToeBase
        {
          OFFSET 2.95501 -5.13629 12.8054
          CHANNELS 6 Xposition Yposition Zposition Zrotation Xrotation Yrotation
          End Site
          {
            OFFSET 0 0 0
          }
        }
      }
    }
  }
  JOINT RightUpLeg
  {
    OFFSET -8.98111 0 0
    CHANNELS 6 Xposition Yposition Zposition Zrotation Xrotation Yrotation
    JOINT RightLeg
    {
      OFFSET 0.875791 -44.0266 -0.648948
      CHANNELS 6 Xposition Yposition Zposition Zrotation Xrotation Yrotation
      JOINT RightFoot
      {
        OFFSET 2.03806 -42.8489 -5.55048
        CHANNELS 6 Xposition Yposition Zposition Zrotation Xrotation Yrotation
        JOINT RightToeBase
        {
          OFFSET -2.95499 -5.13629 12.8054
          CHANNELS 6 Xposition Yposition Zposition Zrotation Xrotation Yrotation
          End Site
          {
            OFFSET 0 0 0
          }
        }
      }
    }
  }
  JOINT Spine
  {
    OFFSET 1.81573e-06 7.02444 -0.908943
    CHANNELS 6 Xposition Yposition Zposition Zrotation Xrotation Yrotation
    JOINT Spine1
    {
      OFFSET 1.81573e-06 7.02444 -0.908943
      CHANNELS 6 Xposition Yposition Zposition Zrotation Xrotation Yrotation
      JOINT Spine2
      {
        OFFSET 1.81573e-06 7.02444 -0.908943
        CHANNELS 6 Xposition Yposition Zposition Zrotation Xrotation Yrotation
        JOINT Spine3
        {
          OFFSET 1.81573e-06 7.02444 -0.908943
          CHANNELS 6 Xposition Yposition Zposition Zrotation Xrotation Yrotation
          JOINT Spine4
          {
            OFFSET 1.81573e-06 7.02444 -0.908943
            CHANNELS 6 Xposition Yposition Zposition Zrotation Xrotation Yrotation
            JOINT Spine5
            {
              OFFSET 1.81573e-06 7.02444 -0.908943
              CHANNELS 6 Xposition Yposition Zposition Zrotation Xrotation Yrotation
              JOINT Spine6
              {
                OFFSET 1.81573e-06 7.02444 -0.908943
                CHANNELS 6 Xposition Yposition Zposition Zrotation Xrotation Yrotation
                JOINT LeftShoulder
                {
                  OFFSET 0 0 0
                  CHANNELS 6 Xposition Yposition Zposition Zrotation Xrotation Yrotation
                  JOINT LeftArm
                  {
                    OFFSET 19.3911 -2.61134e-05 -6.00155e-05
                    CHANNELS 6 Xposition Yposition Zposition Zrotation Xrotation Yrotation
                    JOINT LeftForeArm
                    {
                      OFFSET 28.5888 -0.297887 0.614988
                      CHANNELS 6 Xposition Yposition Zposition Zrotation Xrotation Yrotation
                      JOINT LeftHand
                      {
                        OFFSET 23.5718 0.853671 1.65374
                        CHANNELS 6 Xposition Yposition Zposition Zrotation Xrotation Yrotation
                        End Site
                        {
                          OFFSET 0 0 0
                        }
                      }
                    }
                  }
                }
                JOINT RightShoulder
                {
                  OFFSET 0 0 0
                  CHANNELS 6 Xposition Yposition Zposition Zrotation Xrotation Yrotation
                  JOINT RightArm
                  {
                    OFFSET -19.3911 1.54763e-05 -2.31998e-05
                    CHANNELS 6 Xposition Yposition Zposition Zrotation Xrotation Yrotation
                    JOINT RightForeArm
                    {
                      OFFSET -28.5888 -0.297892 0.614881
                      CHANNELS 6 Xposition Yposition Zposition Zrotation Xrotation Yrotation
                      JOINT RightHand
                      {
                        OFFSET -23.5718 0.853663 1.6537
                        CHANNELS 6 Xposition Yposition Zposition Zrotation Xrotation Yrotation
                        End Site
                        {
                          OFFSET 0 0 0
                        }
                      }
                    }
                  }
                }
                JOINT Neck
                {
                  OFFSET 0 0 0
                  CHANNELS 6 Xposition Yposition Zposition Zrotation Xrotation Yrotation
                  JOINT Head
                  {
                    OFFSET -4.61884e-05 15.9856 2.29875
                    CHANNELS 6 Xposition Yposition Zposition Zrotation Xrotation Yrotation
                    End Site
                    {
                      OFFSET 0 0 0
                    }
                  }
                }
              }
            }
          }
        }
      }
    }
  }
}
MOTION
Frames: 10
Frame Time: 0.02
0 92.2951 0 0 0 0 8.98111 0 0 0 0 0 -0.87507 -44.0267 -0.646895 0 0 0 -2.03811 -42.8489 -5.55045 0 0 0 2.95501 -5.13629 12.8054 0 0 0 -8.98111 0 0 0 0 0 0.875791 -44.0266 -0.648948 0 0 0 2.03806 -42.8489 -5.55048 0 0 0 -2.95499 -5.13629 12.8054 0 0 0 1.81573e-06 7.02444 -0.908943 0 0 0 1.81573e-06 7.02444 -0.908943 0 0 0 1.81573e-06 7.02444 -0.908943 0 0 0 1.81573e-06 7.02444 -0.908943 0 0 0 1.81573e-06 7.02444 -0.908943 0 0 0 1.81573e-06 7.02444 -0.908943 0 0 0 1.81573e-06 7.02444 -0.908943 0 0 0 0 0 0 0 0 0 19.3911 -2.61134e-05 -6.00155e-05 0 0 0 28.5888 -0.297887 0.614988 0 0 0 23.5718 0.853671 1.65374 0 0 0 0 0 0 0 0 0 -19.3911 1.54763e-05 -2.31998e-05 0 0 0 -28.5888 -0.297892 0.614881 0 0 0 -23.5718 0.853663 1.6537 0 0 0 0 0 0 0 0 0 -4.61884e-05 15.9856 2.29875 0 0 0 
3543.75 96.0288 -248.453 5.55879 -4.84424 175.111 8.98111 0 0 18.4716 -26.7096 25.0539 -0.87507 -44.0267 -0.646895 -2.83119e-05 30.6477 2.42947e-05 -2.03811 -42.8489 -5.55045 -0 0 -0 2.95501 -5.13629 12.8054 -0 0 -0 -8.98111 0 0 2.34152 -4.96789 2.0484 0.875791 -44.0266 -0.648948 5.94934e-06 -0.617252 9.02331e-06 2.03806 -42.8489 -5.55048 -0 0 -0 -2.95499 -5.13629 12.8054 -0 0 -0 1.81573e-06 7.02444 -0.908943 2.96634 1.60665 0.875484 1.81573e-06 7.02444 -0.908943 1.99166 2.10823 1.44502 1.81573e-06 7.02444 -0.908943 1.18484 1.3926 1.43383 1.81573e-06 7.02444 -0.908943 0.632173 1.26041 1.30324 1.81573e-06 7.02444 -0.908943 0.517797 1.21756 0.977627 1.81573e-06 7.02444 -0.908943 0.269575 1.21773 0.870452 1.81573e-06 7.02444 -0.908943 -0.0377975 0.00812134 -0.0423608 0 0 0 -5.74609 1.85754 1.64026 19.3911 -2.61134e-05 -6.00155e-05 -72.1361 -29.3001 0.698854 28.5888 -0.297887 0.614988 3.74286e-05 2.06097e-05 -13.8377 23.5718 0.853671 1.65374 -0 0 -0 0 0 0 0.382259 1.39249 -0.663657 -19.3911 1.54763e-05 -2.31998e-05 51.4086 -3.24054 25.151 -28.5888 -0.297892 0.614881 4.30507e-06 -6.50548e-05 71.5043 -23.5718 0.853663 1.6537 -0 0 -0 0 0 0 -2.80036 -4.4417 -3.31424 -4.61884e-05 15.9856 2.29875 -6.4682 -8.30136 -13.06 
3543.75 96.0288 -248.453 5.0356 -5.13857 173.334 8.98111 0 0 20.9085 -26.6512 32.35 -0.87507 -44.0267 -0.646895 -3.21528e-05 33.4235 2.77577e-05 -2.03811 -42.8489 -5.55045 -0 0 -0 2.95501 -5.13629 12.8054 -0 0 -0 -8.98111 0 0 2.27731 -6.29472 5.09492 0.875791 -44.0266 -0.648948 6.86773e-06 -0.573923 8.45699e-06 2.03806 -42.8489 -5.55048 -0 0 -0 -2.95499 -5.13629 12.8054 -0 0 -0 1.81573e-06 7.02444 -0.908943 2.72119 1.27946 1.11274 1.81573e-06 7.02444 -0.908943 1.68928 1.80921 1.57413 1.81573e-06 7.02444 -0.908943 0.968041 1.92065 1.55062 1.81573e-06 7.02444 -0.908943 0.419529 2.02416 1.39064 1.81573e-06 7.02444 -0.908943 0.359555 2.28705 1.1485 1.81573e-06 7.02444 -0.908943 0.317625 2.14409 1.25106 1.81573e-06 7.02444 -0.908943 -0.0311721 -0.0656723 -0.0301555 0 0 0 -7.91002 2.41949 4.46396 19.3911 -2.61134e-05 -6.00155e-05 -66.7385 -8.08799 -8.12861 28.5888 -0.297887 0.614988 3.30747e-05 2.36792e-05 -10.4055 23.5718 0.853671 1.65374 -0 0 -0 0 0 0 -2.67972 1.00986 -6.58134 -19.3911 1.54763e-05 -2.31998e-05 51.6253 2.79339 38.3151 -28.5888 -0.297892 0.614881 -5.32899e-05 -0.000136931 60.8541 -23.5718 0.853663 1.6537 -0 0 -0 0 0 0 -2.14608 -5.92115 -4.10711 -4.61884e-05 15.9856 2.29875 -7.99091 -6.5288 -13.691 
3543.75 96.0288 -248.453 6.42107 -5.59588 173.299 8.98111 0 0 22.7575 -25.5818 38.058 -0.87507 -44.0267 -0.646895 -3.68235e-05 33.7902 3.05388e-05 -2.03811 -42.8489 -5.55045 -0 0 -0 2.95501 -5.13629 12.8054 -0 0 -0 -8.98111 0 0 3.71165 -6.36204 5.81484 0.875791 -44.0266 -0.648948 6.78951e-06 -1.21772 8.28776e-06 2.03806 -42.8489 -5.55048 -0 0 -0 -2.95499 -5.13629 12.8054 -0 0 -0 1.81573e-06 7.02444 -0.908943 3.36699 0.961962 1.05198 1.81573e-06 7.02444 -0.908943 2.23717 1.78153 1.67921 1.81573e-06 7.02444 -0.908943 1.35277 1.80784 1.67436 1.81573e-06 7.02444 -0.908943 0.659072 2.13246 1.4634 1.81573e-06 7.02444 -0.908943 0.51751 2.56688 1.16028 1.81573e-06 7.02444 -0.908943 0.314257 2.49653 1.24973 1.81573e-06 7.02444 -0.908943 -0.0349622 -0.0859167 -0.0318571 0 0 0 -10.9881 3.17132 3.28764 19.3911 -2.61134e-05 -6.00155e-05 -61.5161 -2.99718 -6.18285 28.5888 -0.297887 0.614988 3.28488e-05 2.33255e-05 -10.9087 23.5718 0.853671 1.65374 -0 0 -0 0 0 0 -1.80419 0.922991 -6.93022 -19.3911 1.54763e-05 -2.31998e-05 50.345 1.05935 38.6838 -28.5888 -0.297892 0.614881 -2.85675e-05 -0.000122356 66.2252 -23.5718 0.853663 1.6537 -0 0 -0 0 0 0 -2.38475 -6.41679 -4.05398 -4.61884e-05 15.9856 2.29875 -8.14639 -5.78207 -13.6548 
3543.75 96.0288 -248.453 6.99273 -6.71257 173.636 8.98111 0 0 24.2287 -26.1648 41.4115 -0.87507 -44.0267 -0.646895 -3.65036e-05 33.6291 3.11687e-05 -2.03811 -42.8489 -5.55045 -0 0 -0 2.95501 -5.13629 12.8054 -0 0 -0 -8.98111 0 0 4.51727 -7.65838 6.29775 0.875791 -44.0266 -0.648948 6.7244e-06 -0.614392 8.09839e-06 2.03806 -42.8489 -5.55048 -0 0 -0 -2.95499 -5.13629 12.8054 -0 0 -0 1.81573e-06 7.02444 -0.908943 3.77335 0.347819 0.96392 1.81573e-06 7.02444 -0.908943 2.54163 1.41137 1.68775 1.81573e-06 7.02444 -0.908943 1.5604 1.662 1.69009 1.81573e-06 7.02444 -0.908943 0.787985 2.0947 1.45996 1.81573e-06 7.02444 -0.908943 0.60711 2.6131 1.12443 1.81573e-06 7.02444 -0.908943 0.295828 2.62877 1.20184 1.81573e-06 7.02444 -0.908943 -0.0422219 -0.080812 -0.0367581 0 0 0 -13.4043 3.72969 4.474 19.3911 -2.61134e-05 -6.00155e-05 -60.0296 -5.05399 -7.97766 28.5888 -0.297887 0.614988 3.38152e-05 2.2116e-05 -11.6209 23.5718 0.853671 1.65374 -0 0 -0 0 0 0 -2.58804 0.731449 -7.43566 -19.3911 1.54763e-05 -2.31998e-05 50.9526 2.91608 40.987 -28.5888 -0.297892 0.614881 -4.24896e-05 -0.000132807 63.1087 -23.5718 0.853663 1.6537 -0 0 -0 0 0 0 -2.35696 -6.87394 -4.08913 -4.61884e-05 15.9856 2.29875 -7.78944 -5.69499 -13.5579 
3543.75 96.0288 -248.453 6.99705 -7.36081 173.641 8.98111 0 0 24.1993 -27.1751 41.6758 -0.87507 -44.0267 -0.646895 -3.60572e-05 33.4639 3.11547e-05 -2.03811 -42.8489 -5.55045 -0 0 -0 2.95501 -5.13629 12.8054 -0 0 -0 -8.98111 0 0 4.70037 -8.44461 6.47511 0.875791 -44.0266 -0.648948 6.66981e-06 -0.398568 8.14288e-06 2.03806 -42.8489 -5.55048 -0 0 -0 -2.95499 -5.13629 12.8054 -0 0 -0 1.81573e-06 7.02444 -0.908943 3.8865 -0.0572017 0.979877 1.81573e-06 7.02444 -0.908943 2.60026 1.11335 1.7192 1.81573e-06 7.02444 -0.908943 1.58626 1.50751 1.71447 1.81573e-06 7.02444 -0.908943 0.790044 1.95032 1.48359 1.81573e-06 7.02444 -0.908943 0.596739 2.49185 1.15012 1.81573e-06 7.02444 -0.908943 0.267803 2.55072 1.2468 1.81573e-06 7.02444 -0.908943 -0.0444827 -0.0728673 -0.0388535 0 0 0 -13.2337 3.73088 5.52054 19.3911 -2.61134e-05 -6.00155e-05 -60.4333 -3.85119 -8.57841 28.5888 -0.297887 0.614988 3.45112e-05 2.15905e-05 -12.4176 23.5718 0.853671 1.65374 -0 0 -0 0 0 0 -3.07354 0.652338 -7.70242 -19.3911 1.54763e-05 -2.31998e-05 51.3553 3.23643 38.9667 -28.5888 -0.297892 0.614881 -3.46984e-05 -0.000127121 64.7073 -23.5718 0.853663 1.6537 -0 0 -0 0 0 0 -2.3775 -6.97764 -4.19231 -4.61884e-05 15.9856 2.29875 -8.00132 -5.86789 -13.7768 
3543.75 96.0288 -248.453 6.97748 -7.71032 173.605 8.98111 0 0 24.3083 -27.5125 41.9254 -0.87507 -44.0267 -0.646895 -3.59335e-05 33.336 3.10536e-05 -2.03811 -42.8489 -5.55045 -0 0 -0 2.95501 -5.13629 12.8054 -0 0 -0 -8.98111 0 0 4.74053 -8.85248 6.08919 0.875791 -44.0266 -0.648948 6.62706e-06 -0.336241 8.2003e-06 2.03806 -42.8489 -5.55048 -0 0 -0 -2.95499 -5.13629 12.8054 -0 0 -0 1.81573e-06 7.02444 -0.908943 3.89879 -0.242199 0.993913 1.81573e-06 7.02444 -0.908943 2.60298 0.965441 1.71434 1.81573e-06 7.02444 -0.908943 1.58448 1.47476 1.69913 1.81573e-06 7.02444 -0.908943 0.792912 1.94893 1.47277 1.81573e-06 7.02444 -0.908943 0.592952 2.5127 1.13841 1.81573e-06 7.02444 -0.908943 0.266449 2.58231 1.2458 1.81573e-06 7.02444 -0.908943 -0.0423266 -0.0739988 -0.038938 0 0 0 -12.8079 3.61685 6.07274 19.3911 -2.61134e-05 -6.00155e-05 -61.0178 -3.36586 -9.75572 28.5888 -0.297887 0.614988 3.43356e-05 2.19826e-05 -12.0351 23.5718 0.853671 1.65374 -0 0 -0 0 0 0 -3.05487 0.732762 -7.11583 -19.3911 1.54763e-05 -2.31998e-05 51.0953 2.63746 38.3574 -28.5888 -0.297892 0.614881 -3.13025e-05 -0.00012313 65.2727 -23.5718 0.853663 1.6537 -0 0 -0 0 0 0 -2.43277 -7.05875 -4.22052 -4.61884e-05 15.9856 2.29875 -8.02358 -6.00455 -13.8569 
3543.75 96.0288 -248.453 6.93386 -8.02045 173.565 8.98111 0 0 24.5953 -27.8787 42.2083 -0.87507 -44.0267 -0.646895 -3.61051e-05 33.8232 3.12244e-05 -2.03811 -42.8489 -5.55045 -0 0 -0 2.95501 -5.13629 12.8054 -0 0 -0 -8.98111 0 0 4.64005 -9.22889 5.57353 0.875791 -44.0266 -0.648948 6.61746e-06 -0.335937 8.26899e-06 2.03806 -42.8489 -5.55048 -0 0 -0 -2.95499 -5.13629 12.8054 -0 0 -0 1.81573e-06 7.02444 -0.908943 3.90616 -0.412097 0.989341 1.81573e-06 7.02444 -0.908943 2.60885 0.829271 1.70684 1.81573e-06 7.02444 -0.908943 1.5901 1.41387 1.69108 1.81573e-06 7.02444 -0.908943 0.79936 1.90831 1.46697 1.81573e-06 7.02444 -0.908943 0.597268 2.49167 1.13064 1.81573e-06 7.02444 -0.908943 0.271321 2.57492 1.23863 1.81573e-06 7.02444 -0.908943 -0.0416263 -0.0725323 -0.0388923 0 0 0 -12.711 3.63682 6.24292 19.3911 -2.61134e-05 -6.00155e-05 -61.2333 -2.48364 -9.40512 28.5888 -0.297887 0.614988 3.42008e-05 2.22979e-05 -11.7137 23.5718 0.853671 1.65374 -0 0 -0 0 0 0 -3.39978 0.653791 -7.22927 -19.3911 1.54763e-05 -2.31998e-05 51.4149 3.15491 39.1973 -28.5888 -0.297892 0.614881 -4.02283e-05 -0.000129844 63.2889 -23.5718 0.853663 1.6537 -0 0 -0 0 0 0 -2.40807 -6.90148 -4.09816 -4.61884e-05 15.9856 2.29875 -7.99197 -6.05071 -13.5701 
3543.75 96.0288 -248.453 6.85826 -8.3082 173.519 8.98111 0 0 24.6594 -28.1561 42.2163 -0.87507 -44.0267 -0.646895 -3.623e-05 34.0555 3.13368e-05 -2.03811 -42.8489 -5.55045 -0 0 -0 2.95501 -5.13629 12.8054 -0 0 -0 -8.98111 0 0 4.61626 -9.61562 4.98043 0.875791 -44.0266 -0.648948 6.59889e-06 -0.243703 8.3322e-06 2.03806 -42.8489 -5.55048 -0 0 -0 -2.95499 -5.13629 12.8054 -0 0 -0 1.81573e-06 7.02444 -0.908943 3.9111 -0.591168 0.996725 1.81573e-06 7.02444 -0.908943 2.60278 0.697417 1.71092 1.81573e-06 7.02444 -0.908943 1.58293 1.35415 1.69374 1.81573e-06 7.02444 -0.908943 0.79229 1.86906 1.47033 1.81573e-06 7.02444 -0.908943 0.591541 2.47327 1.1363 1.81573e-06 7.02444 -0.908943 0.271079 2.57118 1.24881 1.81573e-06 7.02444 -0.908943 -0.0416924 -0.0711884 -0.0392706 0 0 0 -12.7243 3.66226 6.22174 19.3911 -2.61134e-05 -6.00155e-05 -61.5582 -2.27621 -8.97841 28.5888 -0.297887 0.614988 3.40974e-05 2.24293e-05 -11.4697 23.5718 0.853671 1.65374 -0 0 -0 0 0 0 -3.23412 0.784815 -7.32753 -19.3911 1.54763e-05 -2.31998e-05 51.1415 3.41259 38.9726 -28.5888 -0.297892 0.614881 -3.86087e-05 -0.000129106 63.6648 -23.5718 0.853663 1.6537 -0 0 -0 0 0 0 -2.35588 -6.75678 -4.01641 -4.61884e-05 15.9856 2.29875 -8.06126 -5.96954 -13.3625 
3543.75 96.0288 -248.453 6.79248 -8.48584 173.46 8.98111 0 0 24.6356 -28.3199 42.2644 -0.87507 -44.0267 -0.646895 -3.61974e-05 34.0703 3.13237e-05 -2.03811 -42.8489 -5.55045 -0 0 -0 2.95501 -5.13629 12.8054 -0 0 -0 -8.98111 0 0 4.64733 -9.83603 4.41856 0.875791 -44.0266 -0.648948 6.58889e-06 -0.242014 8.37079e-06 2.03806 -42.8489 -5.55048 -0 0 -0 -2.95499 -5.13629 12.8054 -0 0 -0 1.81573e-06 7.02444 -0.908943 3.90653 -0.700685 1.00524 1.81573e-06 7.02444 -0.908943 2.59141 0.612187 1.71578 1.81573e-06 7.02444 -0.908943 1.57245 1.30791 1.69693 1.81573e-06 7.02444 -0.908943 0.783046 1.83319 1.47456 1.81573e-06 7.02444 -0.908943 0.583794 2.44702 1.1436 1.81573e-06 7.02444 -0.908943 0.269384 2.5559 1.26021 1.81573e-06 7.02444 -0.908943 -0.0417449 -0.0699437 -0.0395299 0 0 0 -12.797 3.74447 6.21351 19.3911 -2.61134e-05 -6.00155e-05 -61.4219 -1.42438 -8.92132 28.5888 -0.297887 0.614988 3.41964e-05 2.23569e-05 -11.5 23.5718 0.853671 1.65374 -0 0 -0 0 0 0 -3.12653 0.824239 -7.23353 -19.3911 1.54763e-05 -2.31998e-05 51 3.42645 38.8951 -28.5888 -0.297892 0.614881 -3.82617e-05 -0.00012866 63.7109 -23.5718 0.853663 1.6537 -0 0 -0 0 0 0 -2.31627 -6.57001 -3.99967 -4.61884e-05 15.9856 2.29875 -8.16912 -5.91885 -13.3384 
